PathFileType	4	(X/Y/Z)	Patient4_TMGait_0pt4_02_left_18.trc.trc
DataRate	CameraRate	NumFrames	NumMarkers	Units	OrigDataRate	OrigDataStartFrame	OrigNumFrames
74.074074074074	74.074074074074	4	33	mm	74.074074074074	18	       141
Frame#	Time	Sacral			L.Shoulder			Chest			R.Shoulder			Neck			R.ASIS			L.ASIS			R.Thigh.Superior			R.Thigh.Lateral			R.Thigh.Inferior			R.Patella			L.Thigh.Superior			L.Thigh.Lateral			L.Thigh.Inferior			L.Patella			L.Shank.Superior			L.Shank.Lateral			L.Shank.Inferior			R.Shank.Superior			R.Shank.Lateral			R.Shank.Inferior			R.Heel			R.Midfoot.Superior			R.Midfoot.Lateral			R.Toe			L.Heel			L.Midfoot.Lateral			L.Midfoot.Superior			L.Toe			L.Elbow			L.Wrist			R.Elbow			R.Wrist			
		X1	Y1	Z1	X2	Y2	Z2	X3	Y3	Z3	X4	Y4	Z4	X5	Y5	Z5	X6	Y6	Z6	X7	Y7	Z7	X8	Y8	Z8	X9	Y9	Z9	X10	Y10	Z10	X11	Y11	Z11	X12	Y12	Z12	X13	Y13	Z13	X14	Y14	Z14	X15	Y15	Z15	X16	Y16	Z16	X17	Y17	Z17	X18	Y18	Z18	X19	Y19	Z19	X20	Y20	Z20	X21	Y21	Z21	X22	Y22	Z22	X23	Y23	Z23	X24	Y24	Z24	X25	Y25	Z25	X26	Y26	Z26	X27	Y27	Z27	X28	Y28	Z28	X29	Y29	Z29	X30	Y30	Z30	X31	Y31	Z31	X32	Y32	Z32	X33	Y33	Z33	

18	24.349500000000	849.194607671099	1013.419931883704	530.454393034428	1028.644729860847	1426.288781970972	321.749741817247	1147.970004588488	1355.847645921175	470.242159140813	1093.095815466008	1439.113549937512	650.209449531575	1036.561508030607	1491.798446599844	470.585565521502	1083.293460610818	934.563611132413	619.927384604976	1042.243383021086	961.792932558710	347.976152531346	1087.169096386699	725.628405921001	590.228903352245	995.471187265745	629.150954527581	660.788820201935	1054.665293656235	566.008369163932	575.672791576242	1041.765436567350	481.075573876907	583.483832282572	1112.200562769514	779.040257042586	375.843123936883	1070.195587789894	655.623597717396	289.272344255003	1168.028179184023	592.127659713216	355.594658157351	1195.887254004016	528.504336694972	345.914929683729	1177.792954964821	457.114716018885	331.796849505628	1110.437508788335	329.211327123707	275.433213125171	1197.502319577231	226.828092230859	326.577619214727	1005.956715199616	395.875302979242	593.039271782952	928.127435070652	300.709316071974	660.406388500529	953.276732281277	201.755148132757	595.020364572703	804.595893785361	43.604654642912	575.111023859089	976.767995947663	95.756774866582	603.307294212312	890.540663469687	36.726567460213	646.484051089297	1098.414808078618	41.882668654311	627.174075877576	1113.902456574999	45.573846963644	360.453989559493	1188.897685138997	51.055371052718	281.667259107164	1259.223271640871	129.724437684246	303.878389786091	1393.566993272306	101.489344528424	279.508763556858	912.458617559959	1089.289302643844	225.405246674016	944.024110650280	830.342292978908	191.653554811581	1202.632141483753	1118.639524329925	774.390492967197	1421.431848472426	1141.616685371436	654.859913760550	
19	24.363000000000	849.624866244667	1012.399004296369	528.625026556674	1029.393895788985	1425.121719499558	319.774558914188	1148.363199866398	1354.718389525734	468.568898952640	1093.079346462569	1438.127376749464	648.320870926726	1036.956647298267	1490.735229215528	468.683608290947	1083.456321463821	933.772256232095	619.015268873252	1043.070002536414	960.127512173557	346.805737213098	1086.805515119746	724.544384133469	589.831418243632	994.257110830742	628.334443100230	659.906632819078	1053.437451290536	564.885219307816	575.139242882210	1039.838717902275	479.811601811172	582.836291959360	1111.754816721888	776.143763939180	374.738150688623	1067.224837980840	652.518965658456	289.573512080783	1165.320332903480	588.879908283586	354.871528536709	1192.324783373483	525.411383388219	346.199427749560	1174.604411005385	454.143275512333	332.451659816870	1107.449623781705	325.872083009028	277.194912927824	1195.008948622893	224.144807620124	328.463126946319	1003.289162186454	394.795762658503	592.417823397715	924.619900450269	300.391308164546	659.990231813202	948.827996118741	201.152390145689	594.752152251935	799.141015525873	43.499447999432	575.100537734214	971.274536376370	95.679356777351	603.256150122007	885.050776918459	36.646193190698	646.452087346359	1092.920320762572	41.888819507587	627.222522097189	1111.753893274000	44.068969481932	363.438232260504	1186.603394607959	48.575400938610	284.581592791315	1257.388073161924	126.478622312931	306.446955247069	1391.302161041641	97.132094359940	282.218968729694	913.169308415798	1088.181667519747	223.481376299301	944.103294362884	829.129350023438	190.064916175609	1204.134604653125	1117.142921903017	770.104583941922	1422.251540951745	1137.387927040716	648.655880939825	
20	24.376500000000	850.298228674285	1011.229776765511	526.517526563758	1030.091795787104	1423.889530111642	317.522556580976	1148.697889483392	1353.715878395492	466.703649745809	1092.798372974772	1437.227361069844	646.207184551724	1037.185668456869	1489.658434485833	466.487209625396	1083.898493781104	932.976095271123	618.025812108792	1044.305928328734	958.460250468996	345.561083961607	1086.775211252182	723.415484050331	589.310344507497	993.273177213075	627.458970667253	658.824677299633	1052.538171757981	563.678923695259	574.515748448954	1038.199598214841	478.435014813029	582.015993457603	1112.114938295064	773.332290295431	373.233645215712	1064.525673764377	649.299669173330	290.075268122342	1163.318220144409	585.749955455425	353.852868606531	1189.183271258050	522.058980500748	346.369250194295	1171.420219078715	450.767518933003	333.165860557117	1103.411153435457	322.647966687557	279.305171016976	1190.739843705572	220.986532930673	330.606298507119	1000.838546868359	393.640693478111	591.644768570523	921.287013608714	300.075912209226	659.474925745163	944.462220097520	200.528581226599	594.410764054139	793.695744784443	43.413783151503	575.083415101898	965.791778565811	95.604394425355	603.175955214186	879.572487715111	36.573985016623	646.401903849152	1087.430456120074	41.870963934248	627.270164317307	1106.458897303754	42.947042991444	366.879549378822	1180.950540452898	46.102560466806	287.719603689116	1252.879800342964	122.485958932176	309.264661171545	1386.035673764998	90.979965636616	284.662700761047	914.228086483672	1086.892852716974	221.217979662680	944.782103061599	827.768519243779	188.128339750903	1204.720180731925	1115.586393318201	765.907663050380	1422.283329696558	1132.306357611286	642.611051540749	
21	24.390000000000	851.189707979780	1009.953762313166	524.174643557114	1030.747372196391	1422.603578720029	315.008221460073	1149.003922117623	1352.847132470738	464.642046107025	1092.317889962655	1436.422308745415	643.877411150649	1037.279408957819	1488.584027557541	464.007628707710	1084.620321657519	932.171963155397	616.934034044858	1045.903648199650	956.839168402815	344.244509798794	1087.044514217820	722.252898400976	588.615090462363	992.523067394315	626.546116992291	657.550537876743	1051.918970012997	562.406908223988	573.773673584142	1036.820803745250	476.961347790942	581.014683959238	1113.201935030670	770.620350455354	371.377552635085	1062.187218940539	646.080073799919	290.680874057740	1161.961862229266	582.780084975910	352.680895957494	1186.456284575423	518.559807222132	346.507417006606	1168.349692571159	447.134472008117	333.929304439908	1098.722842092177	319.554145012335	281.568261057370	1185.214954186312	217.473987208269	332.894083439665	998.578873750282	392.440708782700	590.720192037793	918.121114724522	299.783616329489	658.863177959357	940.175259127314	199.909851447919	593.997339632550	788.263008837432	43.383488503249	575.065887713675	960.332268906184	95.541622434472	603.071202337217	874.112633223591	36.527649829742	646.334199578813	1081.950991076254	41.817059136108	627.317598813577	1098.819983705246	42.042492387064	370.473092199954	1172.827091934390	43.697372449904	290.848494563235	1246.383250262747	118.010083990185	312.215003453722	1378.591586499272	83.642916329716	286.834608006821	915.597565333850	1085.439663462708	218.652131858610	946.049527531079	826.281777384975	185.849452565798	1204.387955411594	1113.955527910422	761.879547392901	1421.491420979442	1126.355111630560	636.798271582283	
